<svg width="207" height="38" viewBox="0 0 207 38" fill="none" xmlns="http://www.w3.org/2000/svg">
<circle cx="18.4628" cy="19.5372" r="15.5665" stroke="black" stroke-width="2.22378" stroke-linecap="round" stroke-dasharray="8.9 8.9"/>
<path fill-rule="evenodd" clip-rule="evenodd" d="M30.9538 36.9251C31.1571 36.786 31.3587 36.643 31.5582 36.4961C32.4231 35.8593 33.2511 35.1496 34.0338 34.3669C34.8165 33.5843 35.5262 32.7563 36.1629 31.8914C36.3098 31.6918 36.4528 31.4903 36.592 31.2869C36.7319 31.0824 36.8679 30.876 37 30.6678C36.3437 30.2182 35.4443 30.3669 34.969 31.0124C34.3763 31.8175 33.7153 32.5889 32.9855 33.3187C32.2557 34.0484 31.4843 34.7095 30.6793 35.3022C30.0338 35.7774 29.8851 36.6769 30.3346 37.3332C30.5428 37.2011 30.7492 37.0651 30.9538 36.9251ZM7.33222 37.3332C7.78178 36.6769 7.63308 35.7774 6.98756 35.3022C6.18249 34.7095 5.41112 34.0484 4.68135 33.3187C3.95157 32.5889 3.2905 31.8175 2.69782 31.0124C2.22258 30.3669 1.3231 30.2182 0.666841 30.6678C0.798919 30.876 0.934924 31.0824 1.07486 31.2869C1.214 31.4903 1.35703 31.6918 1.50394 31.8914C2.14067 32.7563 2.85037 33.5843 3.63305 34.3669C4.41572 35.1496 5.24373 35.8593 6.10862 36.4961C6.30818 36.643 6.5097 36.786 6.71307 36.9251C6.91761 37.0651 7.12403 37.2011 7.33222 37.3332ZM0.66684 7.66538C1.3231 8.11494 2.22258 7.96625 2.69782 7.32071C3.2905 6.51565 3.95157 5.74428 4.68135 5.01451C5.41112 4.28473 6.18249 3.62366 6.98755 3.03098C7.63309 2.55574 7.78178 1.65626 7.33222 1C7.12403 1.13208 6.91761 1.26808 6.71307 1.40802C6.5097 1.54716 6.30818 1.69019 6.10862 1.8371C5.24373 2.47383 4.41572 3.18353 3.63305 3.96621C2.85037 4.74888 2.14067 5.57689 1.50394 6.44178C1.35703 6.64134 1.214 6.84285 1.07486 7.04623C0.934923 7.25077 0.798916 7.45719 0.66684 7.66538ZM30.3346 1C29.8851 1.65626 30.0338 2.55574 30.6793 3.03098C31.4843 3.62366 32.2557 4.28473 32.9855 5.01451C33.7153 5.74428 34.3763 6.51565 34.969 7.32071C35.4443 7.96625 36.3437 8.11494 37 7.66538C36.8679 7.45719 36.7319 7.25077 36.592 7.04623C36.4528 6.84285 36.3098 6.64134 36.1629 6.44178C35.5262 5.57689 34.8165 4.74888 34.0338 3.96621C33.2511 3.18353 32.4231 2.47383 31.5582 1.8371C31.3587 1.69019 31.1571 1.54716 30.9538 1.40802C30.7492 1.26808 30.5428 1.13208 30.3346 1Z" fill="black"/>
<path d="M12.5383 27.0477L14.9548 12.492H20.6974C21.7967 12.492 22.6993 12.7029 23.4053 13.1246C24.116 13.5415 24.6135 14.122 24.8978 14.8658C25.1868 15.605 25.2532 16.4579 25.0968 17.4245C24.9357 18.3958 24.5851 19.251 24.0449 19.9902C23.5095 20.7246 22.813 21.2979 21.9554 21.7101C21.0978 22.1224 20.1075 22.3285 18.9846 22.3285H15.3243L15.7294 19.8623H18.8922C19.4892 19.8623 19.9985 19.7604 20.4202 19.5566C20.8467 19.3482 21.1855 19.0615 21.4366 18.6967C21.6877 18.3271 21.8512 17.903 21.927 17.4245C22.0075 16.9364 21.9815 16.5124 21.8488 16.1523C21.7161 15.7922 21.4721 15.5126 21.1167 15.3136C20.7661 15.1099 20.2947 15.008 19.7024 15.008H17.6271L15.6157 27.0477H12.5383Z" fill="black"/>
<path d="M59.7232 11.8977C59.4675 13.4413 58.9632 14.7576 58.2104 15.8466C57.4623 16.9309 56.5485 17.7618 55.4689 18.3395C54.3941 18.9124 53.2364 19.1989 51.9959 19.1989C50.6938 19.1989 49.5764 18.8958 48.6436 18.2898C47.7109 17.679 47.0385 16.8054 46.6266 15.669C46.2194 14.5327 46.1484 13.169 46.4135 11.5781C46.6692 10.0393 47.1711 8.72301 47.9192 7.62926C48.6673 6.53551 49.5835 5.69981 50.6678 5.12216C51.7521 4.54451 52.9216 4.25568 54.1763 4.25568C55.4689 4.25568 56.5769 4.56108 57.5002 5.17188C58.4282 5.77794 59.0958 6.65151 59.503 7.79261C59.915 8.93371 59.9883 10.3021 59.7232 11.8977ZM57.1309 11.5781C57.306 10.5033 57.2895 9.59659 57.0811 8.85795C56.8775 8.11932 56.5153 7.56297 55.9945 7.18892C55.4737 6.81013 54.8321 6.62074 54.0698 6.62074C53.2459 6.62074 52.4836 6.8267 51.7828 7.23864C51.0868 7.64583 50.495 8.24242 50.0073 9.02841C49.5243 9.81439 49.1929 10.7708 49.013 11.8977C48.8236 12.9773 48.8354 13.884 49.0485 14.6179C49.2615 15.3518 49.6309 15.9058 50.1564 16.2798C50.682 16.6491 51.3236 16.8338 52.0811 16.8338C52.9003 16.8338 53.6578 16.6302 54.3539 16.223C55.0499 15.8158 55.6394 15.2216 56.1223 14.4403C56.61 13.6591 56.9462 12.705 57.1309 11.5781ZM60.247 23.0909L62.7612 8.09091H65.2896L64.9984 9.89489H65.1475C65.318 9.62973 65.5476 9.34801 65.8365 9.04972C66.13 8.74669 66.5017 8.48864 66.9515 8.27557C67.4013 8.05777 67.9482 7.94886 68.5922 7.94886C69.4302 7.94886 70.1523 8.1643 70.7583 8.59517C71.3644 9.02131 71.7976 9.65341 72.0581 10.4915C72.3232 11.3248 72.3564 12.3475 72.1575 13.5597C71.9586 14.7576 71.5917 15.7756 71.0566 16.6136C70.5216 17.4517 69.88 18.0909 69.1319 18.5312C68.3838 18.9716 67.5813 19.1918 66.7243 19.1918C66.0993 19.1918 65.595 19.0876 65.2115 18.8793C64.8327 18.6709 64.5462 18.42 64.3521 18.1264C64.158 17.8281 64.0136 17.5464 63.9189 17.2812H63.8052L62.8393 23.0909H60.247ZM64.3734 13.5455C64.2598 14.2509 64.2574 14.8688 64.3663 15.3991C64.4799 15.9295 64.7048 16.3437 65.041 16.642C65.3772 16.9356 65.8175 17.0824 66.362 17.0824C66.9302 17.0824 67.4274 16.9309 67.8535 16.6278C68.2844 16.3201 68.6419 15.901 68.926 15.3707C69.2148 14.8357 69.4184 14.2273 69.5368 13.5455C69.6457 12.8684 69.6457 12.267 69.5368 11.7415C69.4279 11.2159 69.2077 10.804 68.8762 10.5057C68.5448 10.2074 68.095 10.0582 67.5268 10.0582C66.9728 10.0582 66.478 10.2027 66.0424 10.4915C65.6116 10.7803 65.2541 11.1851 64.97 11.706C64.6859 12.2268 64.487 12.84 64.3734 13.5455ZM78.2424 19.2131C77.1486 19.2131 76.2443 18.9858 75.5293 18.5312C74.8143 18.072 74.3124 17.4233 74.0236 16.5852C73.7395 15.7424 73.6922 14.7505 73.8816 13.6094C74.0662 12.4872 74.4426 11.5024 75.0108 10.6548C75.579 9.80256 76.2892 9.13968 77.1415 8.66619C77.9985 8.18797 78.9455 7.94886 79.9824 7.94886C80.6548 7.94886 81.2727 8.05777 81.8361 8.27557C82.3996 8.48864 82.8754 8.82008 83.2637 9.26989C83.6519 9.7197 83.9194 10.2926 84.0662 10.9886C84.213 11.6799 84.2059 12.5038 84.0449 13.4602L83.9242 14.2486H74.9753L75.2523 12.5156H81.7296C81.8148 12.0232 81.7864 11.5852 81.6444 11.2017C81.5023 10.8134 81.2656 10.508 80.9341 10.2855C80.6027 10.063 80.1884 9.9517 79.6912 9.9517C79.1846 9.9517 78.7111 10.0819 78.2708 10.3423C77.8352 10.598 77.4682 10.9295 77.1699 11.3366C76.8716 11.7438 76.6822 12.1723 76.6017 12.6222L76.3105 14.2841C76.2064 14.9659 76.2301 15.5223 76.3816 15.9531C76.5331 16.384 76.7982 16.7012 77.177 16.9048C77.5558 17.1084 78.034 17.2102 78.6117 17.2102C78.9905 17.2102 79.3408 17.1581 79.6628 17.054C79.9848 16.9498 80.2712 16.7936 80.5222 16.5852C80.7779 16.3722 80.9909 16.1117 81.1614 15.804L83.5123 16.0739C83.2518 16.7083 82.8707 17.2623 82.3688 17.7358C81.8669 18.2045 81.2656 18.5691 80.5648 18.8295C79.8688 19.0852 79.0946 19.2131 78.2424 19.2131ZM88.9526 12.608L87.9015 19H85.3233L87.1415 8.09091H89.606L89.2935 9.9446H89.4284C89.7694 9.33381 90.2476 8.84848 90.8631 8.48864C91.4786 8.12879 92.196 7.94886 93.0151 7.94886C93.7585 7.94886 94.3835 8.10985 94.8901 8.43182C95.3967 8.74905 95.7566 9.21544 95.9696 9.83097C96.1827 10.4418 96.2159 11.1828 96.0691 12.054L94.9043 19H92.3333L93.4199 12.4517C93.543 11.7273 93.4507 11.1591 93.1429 10.7472C92.8399 10.3305 92.3522 10.1222 91.6799 10.1222C91.2301 10.1222 90.8158 10.2216 90.437 10.4205C90.0582 10.6146 89.7386 10.8963 89.4782 11.2656C89.2225 11.6349 89.0473 12.0824 88.9526 12.608ZM97.6174 19L100.032 4.45455H105.487C106.604 4.45455 107.508 4.66288 108.2 5.07955C108.891 5.49148 109.372 6.06203 109.642 6.79119C109.911 7.51562 109.968 8.34186 109.812 9.26989C109.66 10.2027 109.327 11.0312 108.811 11.7557C108.299 12.4801 107.624 13.0507 106.786 13.4673C105.948 13.8793 104.968 14.0852 103.846 14.0852H100.231L100.593 11.919H103.853C104.507 11.919 105.061 11.8054 105.515 11.5781C105.974 11.3509 106.337 11.0384 106.602 10.6406C106.867 10.2429 107.042 9.78598 107.127 9.26989C107.208 8.75379 107.182 8.29924 107.049 7.90625C106.917 7.51326 106.659 7.20786 106.275 6.99006C105.896 6.76752 105.378 6.65625 104.72 6.65625H102.305L100.252 19H97.6174ZM115 19.2131C113.906 19.2131 113.002 18.9858 112.287 18.5312C111.572 18.072 111.07 17.4233 110.781 16.5852C110.497 15.7424 110.45 14.7505 110.639 13.6094C110.824 12.4872 111.2 11.5024 111.769 10.6548C112.337 9.80256 113.047 9.13968 113.899 8.66619C114.756 8.18797 115.703 7.94886 116.74 7.94886C117.413 7.94886 118.03 8.05777 118.594 8.27557C119.157 8.48864 119.633 8.82008 120.021 9.26989C120.41 9.7197 120.677 10.2926 120.824 10.9886C120.971 11.6799 120.964 12.5038 120.803 13.4602L120.682 14.2486H111.733L112.01 12.5156H118.487C118.573 12.0232 118.544 11.5852 118.402 11.2017C118.26 10.8134 118.023 10.508 117.692 10.2855C117.36 10.063 116.946 9.9517 116.449 9.9517C115.942 9.9517 115.469 10.0819 115.029 10.3423C114.593 10.598 114.226 10.9295 113.928 11.3366C113.629 11.7438 113.44 12.1723 113.36 12.6222L113.068 14.2841C112.964 14.9659 112.988 15.5223 113.139 15.9531C113.291 16.384 113.556 16.7012 113.935 16.9048C114.314 17.1084 114.792 17.2102 115.369 17.2102C115.748 17.2102 116.099 17.1581 116.421 17.054C116.743 16.9498 117.029 16.7936 117.28 16.5852C117.536 16.3722 117.749 16.1117 117.919 15.804L120.27 16.0739C120.01 16.7083 119.628 17.2623 119.127 17.7358C118.625 18.2045 118.023 18.5691 117.323 18.8295C116.627 19.0852 115.852 19.2131 115 19.2131ZM122.074 19L123.892 8.09091H126.385L126.08 9.90909H126.193C126.492 9.27936 126.913 8.79403 127.458 8.45312C128.007 8.10748 128.594 7.93466 129.219 7.93466C129.366 7.93466 129.524 7.94176 129.695 7.95597C129.865 7.96544 130.012 7.98201 130.135 8.00568L129.737 10.3707C129.628 10.3329 129.458 10.2997 129.226 10.2713C128.999 10.2382 128.774 10.2216 128.551 10.2216C128.083 10.2216 127.647 10.3234 127.244 10.527C126.847 10.7259 126.511 11.0028 126.236 11.358C125.961 11.7131 125.784 12.1226 125.703 12.5866L124.645 19H122.074ZM139.974 10.9744L137.608 11.2301C137.585 10.9886 137.511 10.7637 137.388 10.5554C137.265 10.3471 137.081 10.1813 136.834 10.0582C136.593 9.9304 136.28 9.86648 135.897 9.86648C135.338 9.86648 134.848 9.99195 134.427 10.2429C134.005 10.4938 133.766 10.8158 133.709 11.2088C133.657 11.5024 133.728 11.7415 133.922 11.9261C134.117 12.1108 134.476 12.267 135.002 12.3949L136.806 12.7926C137.8 13.0152 138.515 13.375 138.951 13.8722C139.391 14.3693 139.545 15.0204 139.412 15.8253C139.299 16.4976 139.005 17.0895 138.532 17.6009C138.058 18.1075 137.452 18.5028 136.714 18.7869C135.98 19.071 135.165 19.2131 134.27 19.2131C132.912 19.2131 131.865 18.9313 131.131 18.3679C130.402 17.7997 130.04 17.0185 130.045 16.0241L132.573 15.7827C132.601 16.2751 132.774 16.6468 133.091 16.8977C133.409 17.1439 133.849 17.2694 134.412 17.2741C135.047 17.2789 135.582 17.1463 136.018 16.8764C136.458 16.6018 136.706 16.268 136.763 15.875C136.811 15.5814 136.737 15.3423 136.543 15.1577C136.354 14.973 136.015 14.8262 135.528 14.7173L133.738 14.3267C132.724 14.1042 132.002 13.7277 131.572 13.1974C131.145 12.6624 131.001 11.9877 131.138 11.1733C131.252 10.5104 131.529 9.93987 131.969 9.46165C132.414 8.97869 132.985 8.60701 133.681 8.34659C134.377 8.08144 135.156 7.94886 136.018 7.94886C137.315 7.94886 138.293 8.22112 138.951 8.76562C139.609 9.31013 139.95 10.0464 139.974 10.9744ZM145.787 19.2131C144.712 19.2131 143.817 18.9763 143.102 18.5028C142.392 18.0294 141.892 17.3641 141.604 16.5071C141.315 15.6501 141.263 14.6558 141.447 13.5241C141.632 12.4067 142.001 11.429 142.555 10.5909C143.114 9.75284 143.817 9.10417 144.665 8.64489C145.517 8.18087 146.471 7.94886 147.527 7.94886C148.602 7.94886 149.494 8.18797 150.204 8.66619C150.915 9.13968 151.414 9.80492 151.703 10.6619C151.997 11.5189 152.051 12.518 151.866 13.6591C151.686 14.7718 151.315 15.7448 150.751 16.5781C150.193 17.4115 149.489 18.0601 148.642 18.5241C147.794 18.9834 146.843 19.2131 145.787 19.2131ZM146 17.1534C146.596 17.1534 147.12 16.9924 147.569 16.6705C148.024 16.3437 148.396 15.9058 148.684 15.3565C148.978 14.8026 149.182 14.187 149.295 13.5099C149.399 12.8565 149.402 12.2647 149.302 11.7344C149.203 11.1993 148.99 10.7756 148.663 10.4631C148.341 10.1458 147.894 9.98722 147.321 9.98722C146.724 9.98722 146.196 10.1529 145.737 10.4844C145.282 10.8111 144.911 11.2514 144.622 11.8054C144.333 12.3546 144.134 12.9678 144.025 13.6449C143.916 14.2983 143.912 14.8902 144.011 15.4205C144.111 15.9508 144.324 16.3722 144.65 16.6847C144.977 16.9972 145.427 17.1534 146 17.1534ZM156.804 12.608L155.753 19H153.175L154.993 8.09091H157.458L157.145 9.9446H157.28C157.621 9.33381 158.099 8.84848 158.715 8.48864C159.33 8.12879 160.048 7.94886 160.867 7.94886C161.61 7.94886 162.235 8.10985 162.742 8.43182C163.248 8.74905 163.608 9.21544 163.821 9.83097C164.034 10.4418 164.067 11.1828 163.921 12.054L162.756 19H160.185L161.271 12.4517C161.395 11.7273 161.302 11.1591 160.994 10.7472C160.691 10.3305 160.204 10.1222 159.531 10.1222C159.082 10.1222 158.667 10.2216 158.289 10.4205C157.91 10.6146 157.59 10.8963 157.33 11.2656C157.074 11.6349 156.899 12.0824 156.804 12.608ZM168.466 19.2202C167.775 19.2202 167.173 19.0971 166.662 18.8509C166.151 18.5999 165.774 18.2306 165.533 17.7429C165.296 17.2552 165.237 16.6539 165.355 15.9389C165.459 15.3234 165.658 14.8144 165.952 14.4119C166.25 14.0095 166.615 13.6875 167.046 13.446C167.481 13.1998 167.955 13.0152 168.466 12.892C168.982 12.7689 169.508 12.679 170.043 12.6222C170.696 12.5559 171.224 12.4943 171.627 12.4375C172.034 12.3807 172.339 12.2955 172.543 12.1818C172.746 12.0634 172.869 11.8835 172.912 11.642V11.5994C172.997 11.0644 172.912 10.6501 172.656 10.3565C172.401 10.063 171.975 9.91619 171.378 9.91619C170.753 9.91619 170.227 10.0535 169.801 10.3281C169.375 10.6027 169.065 10.9271 168.871 11.3011L166.541 10.9602C166.835 10.2973 167.237 9.74337 167.749 9.2983C168.26 8.84848 168.85 8.51231 169.517 8.28977C170.19 8.0625 170.907 7.94886 171.669 7.94886C172.19 7.94886 172.699 8.01042 173.196 8.13352C173.698 8.25663 174.141 8.46023 174.524 8.74432C174.913 9.02367 175.197 9.40483 175.377 9.88778C175.561 10.3707 175.592 10.9744 175.469 11.6989L174.254 19H171.783L172.039 17.5014H171.953C171.75 17.8045 171.485 18.0885 171.158 18.3537C170.831 18.6141 170.443 18.8248 169.993 18.9858C169.543 19.142 169.034 19.2202 168.466 19.2202ZM169.439 17.331C169.955 17.331 170.419 17.2292 170.831 17.0256C171.243 16.8172 171.582 16.5426 171.847 16.2017C172.112 15.8608 172.278 15.4891 172.344 15.0866L172.557 13.8011C172.462 13.8674 172.316 13.929 172.117 13.9858C171.918 14.0426 171.695 14.0923 171.449 14.1349C171.208 14.1776 170.968 14.2154 170.732 14.2486C170.495 14.2817 170.291 14.3101 170.121 14.3338C169.728 14.3859 169.368 14.4711 169.041 14.5895C168.719 14.7079 168.452 14.8736 168.239 15.0866C168.03 15.295 167.9 15.5649 167.848 15.8963C167.772 16.3651 167.884 16.7225 168.182 16.9688C168.48 17.2102 168.899 17.331 169.439 17.331ZM181.825 4.45455L179.411 19H176.84L179.254 4.45455H181.825ZM182.055 19L183.873 8.09091H186.444L184.626 19H182.055ZM185.535 6.52841C185.123 6.52841 184.782 6.3911 184.512 6.11648C184.242 5.84186 184.124 5.51278 184.157 5.12926C184.19 4.74574 184.363 4.41667 184.675 4.14205C184.992 3.86742 185.355 3.73011 185.762 3.73011C186.174 3.73011 186.512 3.86742 186.778 4.14205C187.047 4.41667 187.166 4.74574 187.133 5.12926C187.104 5.51278 186.931 5.84186 186.614 6.11648C186.302 6.3911 185.942 6.52841 185.535 6.52841ZM194.535 8.09091L194.201 10.0795H187.937L188.264 8.09091H194.535ZM190.238 5.47727H192.809L191.105 15.7188C191.052 16.0644 191.062 16.3295 191.133 16.5142C191.209 16.6941 191.329 16.8172 191.495 16.8835C191.666 16.9498 191.857 16.983 192.07 16.983C192.227 16.983 192.374 16.9711 192.511 16.9474C192.648 16.919 192.757 16.8977 192.838 16.8835L192.951 18.8935C192.795 18.9408 192.584 18.9929 192.319 19.0497C192.059 19.1065 191.746 19.1397 191.382 19.1491C190.728 19.1634 190.16 19.0639 189.677 18.8509C189.199 18.633 188.848 18.2992 188.626 17.8494C188.408 17.3949 188.358 16.8267 188.477 16.1449L190.238 5.47727ZM195.797 23.0909C195.447 23.0909 195.127 23.0625 194.839 23.0057C194.555 22.9536 194.33 22.892 194.164 22.821L195.101 20.8182C195.456 20.9271 195.776 20.9744 196.06 20.9602C196.349 20.9508 196.614 20.8537 196.856 20.669C197.102 20.4891 197.343 20.1932 197.58 19.7812L197.907 19.1918L195.819 8.09091H198.447L199.583 16.3438H199.697L203.596 8.09091H206.43L200.045 20.3068C199.737 20.8987 199.379 21.4006 198.972 21.8125C198.565 22.2292 198.099 22.5464 197.573 22.7642C197.052 22.982 196.46 23.0909 195.797 23.0909Z" fill="black"/>
<path d="M45.5114 34L46.9602 25.2727H49.9091C50.5909 25.2727 51.1293 25.3949 51.5241 25.6392C51.9219 25.8835 52.1903 26.2145 52.3295 26.6321C52.4716 27.0497 52.5 27.517 52.4148 28.0341C52.3295 28.5455 52.1463 29.0114 51.8651 29.4318C51.5866 29.8523 51.2088 30.1875 50.7315 30.4375C50.2571 30.6875 49.6818 30.8125 49.0057 30.8125H46.892L47.0455 29.875H49.125C49.5909 29.875 49.9801 29.794 50.2926 29.6321C50.6051 29.4702 50.8494 29.25 51.0256 28.9716C51.2017 28.6932 51.3182 28.3807 51.375 28.0341C51.4318 27.6818 51.4176 27.3693 51.3324 27.0966C51.25 26.821 51.0781 26.6051 50.8168 26.4489C50.5582 26.2898 50.1932 26.2102 49.7216 26.2102H47.8636L46.5682 34H45.5114ZM55.6119 34.1364C55.0096 34.1364 54.5053 33.9929 54.0991 33.706C53.6928 33.419 53.4059 33.017 53.2383 32.5C53.0735 31.983 53.0465 31.3807 53.1573 30.6932C53.2653 30.0227 53.4798 29.4389 53.8008 28.9418C54.1246 28.4418 54.5266 28.0554 55.0067 27.7827C55.4897 27.5071 56.021 27.3693 56.6005 27.3693C57.2028 27.3693 57.7056 27.5142 58.109 27.804C58.5153 28.0909 58.8022 28.4943 58.9698 29.0142C59.1374 29.5312 59.1658 30.1364 59.055 30.8295C58.9471 31.4943 58.7298 32.0753 58.4031 32.5724C58.0792 33.0668 57.6772 33.4517 57.1971 33.7273C56.7198 34 56.1914 34.1364 55.6119 34.1364ZM55.6289 33.233C56.0891 33.233 56.4883 33.1151 56.8263 32.8793C57.1673 32.6435 57.4428 32.3324 57.6531 31.946C57.8661 31.5597 58.0096 31.142 58.0835 30.6932C58.1516 30.267 58.1488 29.8707 58.0749 29.5043C58.0011 29.1349 57.8434 28.8381 57.6019 28.6136C57.3604 28.3864 57.021 28.2727 56.5835 28.2727C56.1232 28.2727 55.7212 28.392 55.3775 28.6307C55.0366 28.8693 54.761 29.1832 54.5508 29.5724C54.3406 29.9616 54.1999 30.3807 54.1289 30.8295C54.0607 31.2557 54.0621 31.652 54.1332 32.0185C54.207 32.3821 54.3647 32.6761 54.6062 32.9006C54.8505 33.1222 55.1914 33.233 55.6289 33.233ZM60.0703 34L61.1612 27.4545H62.1328L61.9624 28.4432H62.0305C62.201 28.1193 62.4609 27.8565 62.8104 27.6548C63.1598 27.4531 63.5305 27.3523 63.9226 27.3523C63.9993 27.3523 64.0916 27.3537 64.1996 27.3565C64.3075 27.3565 64.3913 27.3608 64.451 27.3693L64.2805 28.392C64.2464 28.3835 64.1697 28.3707 64.0504 28.3537C63.9311 28.3338 63.8033 28.3239 63.6669 28.3239C63.3487 28.3239 63.0547 28.3906 62.7848 28.5241C62.5149 28.6548 62.2891 28.8366 62.1072 29.0696C61.9254 29.2997 61.8089 29.5625 61.7578 29.858L61.076 34H60.0703ZM68.9062 27.4545L68.7699 28.3068H65.3778L65.5142 27.4545H68.9062ZM66.7585 25.8864H67.7642L66.7244 32.125C66.679 32.4091 66.6861 32.6222 66.7457 32.7642C66.8082 32.9034 66.902 32.9972 67.027 33.0455C67.1548 33.0909 67.2926 33.1136 67.4403 33.1136C67.5511 33.1136 67.642 33.108 67.7131 33.0966C67.7841 33.0824 67.8409 33.071 67.8835 33.0625L67.9517 33.9659C67.875 33.9915 67.7713 34.017 67.6406 34.0426C67.5128 34.071 67.3551 34.0852 67.1676 34.0852C66.8835 34.0852 66.6165 34.0241 66.3665 33.902C66.1165 33.7798 65.9247 33.5938 65.7912 33.3438C65.6577 33.0938 65.6222 32.7784 65.6847 32.3977L66.7585 25.8864ZM71.2372 34.1534C70.8224 34.1534 70.4588 34.0753 70.1463 33.919C69.8338 33.7599 69.6023 33.5312 69.4517 33.233C69.3011 32.9318 69.2599 32.5682 69.3281 32.142C69.3935 31.767 69.5199 31.4631 69.7074 31.2301C69.8949 30.9943 70.1222 30.8097 70.3892 30.6761C70.6591 30.5398 70.9489 30.4389 71.2585 30.3736C71.571 30.3054 71.8821 30.2528 72.1918 30.2159C72.5952 30.1648 72.9233 30.125 73.1761 30.0966C73.429 30.0682 73.6193 30.0213 73.7472 29.956C73.875 29.8906 73.9531 29.7784 73.9815 29.6193V29.5852C74.0497 29.1676 73.9943 28.8423 73.8153 28.6094C73.6364 28.3736 73.3168 28.2557 72.8565 28.2557C72.3793 28.2557 71.9801 28.3608 71.6591 28.571C71.3381 28.7812 71.1009 29.0057 70.9474 29.2443L70.0611 28.9034C70.294 28.5057 70.5724 28.196 70.8963 27.9744C71.2202 27.75 71.5597 27.5937 71.9148 27.5057C72.2699 27.4148 72.6122 27.3693 72.9418 27.3693C73.152 27.3693 73.3892 27.3949 73.6534 27.446C73.9176 27.4943 74.1648 27.5952 74.3949 27.7486C74.6278 27.902 74.8026 28.1335 74.919 28.4432C75.0384 28.7528 75.0554 29.1676 74.9702 29.6875L74.2543 34H73.2486L73.402 33.1136H73.3509C73.2599 33.2557 73.1207 33.4077 72.9332 33.5696C72.7486 33.7315 72.5142 33.8693 72.2301 33.983C71.9489 34.0966 71.6179 34.1534 71.2372 34.1534ZM71.527 33.25C71.9247 33.25 72.2727 33.1719 72.571 33.0156C72.8722 32.8594 73.1136 32.6577 73.2955 32.4105C73.4801 32.1634 73.5952 31.9034 73.6406 31.6307L73.794 30.7102C73.7429 30.7614 73.642 30.8082 73.4915 30.8509C73.3409 30.8906 73.1705 30.9261 72.9801 30.9574C72.7926 30.9858 72.6094 31.0114 72.4304 31.0341C72.2543 31.054 72.1122 31.071 72.0043 31.0852C71.7372 31.1193 71.483 31.1747 71.2415 31.2514C71.0028 31.3253 70.8011 31.4375 70.6364 31.5881C70.4744 31.7358 70.3736 31.9375 70.3338 32.1932C70.2741 32.5426 70.358 32.8068 70.5852 32.9858C70.8125 33.1619 71.1264 33.25 71.527 33.25ZM76.2262 34L77.6751 25.2727H78.6808L78.1523 28.4943H78.2376C78.3285 28.3807 78.4549 28.2358 78.6168 28.0597C78.7788 27.8807 78.9961 27.7216 79.2688 27.5824C79.5415 27.4403 79.891 27.3693 80.3171 27.3693C80.8683 27.3693 81.3299 27.5071 81.7021 27.7827C82.0771 28.0582 82.3398 28.4489 82.4904 28.9545C82.6438 29.4602 82.6637 30.0568 82.5501 30.7443C82.4364 31.4375 82.2191 32.0384 81.8981 32.5469C81.5799 33.0526 81.1879 33.4446 80.7219 33.723C80.2589 33.9986 79.7546 34.1364 79.2092 34.1364C78.7887 34.1364 78.4634 34.0668 78.2333 33.9276C78.006 33.7855 77.8384 33.625 77.7305 33.446C77.6254 33.2642 77.5444 33.1136 77.4876 32.9943H77.3683L77.1978 34H76.2262ZM77.7603 30.7273C77.6808 31.2216 77.6822 31.6577 77.7646 32.0355C77.8469 32.4105 78.0103 32.7045 78.2546 32.9176C78.4989 33.1278 78.8228 33.233 79.2262 33.233C79.6467 33.233 80.016 33.1222 80.3342 32.9006C80.6523 32.6761 80.9137 32.375 81.1183 31.9972C81.3228 31.6165 81.4648 31.1932 81.5444 30.7273C81.6183 30.267 81.6154 29.8523 81.5359 29.483C81.4592 29.1108 81.2972 28.8168 81.0501 28.6009C80.8058 28.3821 80.4705 28.2727 80.0444 28.2727C79.6353 28.2727 79.2731 28.3764 78.9577 28.5838C78.6452 28.7884 78.3867 29.0753 78.1822 29.4446C77.9805 29.8111 77.8398 30.2386 77.7603 30.7273ZM85.9975 25.2727L84.5487 34H83.543L84.9918 25.2727H85.9975ZM89.1179 34.1364C88.4901 34.1364 87.9716 33.9972 87.5625 33.7188C87.1534 33.4375 86.8679 33.0455 86.706 32.5426C86.544 32.0369 86.5185 31.4489 86.6293 30.7784C86.7401 30.108 86.9602 29.517 87.2898 29.0057C87.6193 28.4915 88.0298 28.0909 88.5213 27.804C89.0128 27.5142 89.5526 27.3693 90.1406 27.3693C90.4815 27.3693 90.8097 27.4261 91.125 27.5398C91.4403 27.6534 91.7131 27.8381 91.9432 28.0938C92.1733 28.3466 92.3338 28.6818 92.4247 29.0994C92.5156 29.517 92.5099 30.0312 92.4077 30.642L92.3395 31.0682H87.294L87.4304 30.1989H91.4531C91.5185 29.8295 91.5014 29.5 91.402 29.2102C91.3054 28.9205 91.1364 28.6918 90.8949 28.5241C90.6563 28.3565 90.3537 28.2727 89.9872 28.2727C89.6094 28.2727 89.2571 28.375 88.9304 28.5795C88.6037 28.7812 88.331 29.0369 88.1122 29.3466C87.8935 29.6534 87.7571 29.9659 87.7031 30.2841L87.5838 31.0341C87.4986 31.5767 87.5114 32.0085 87.6222 32.3295C87.7358 32.6506 87.9332 32.8821 88.2145 33.0241C88.4957 33.1634 88.848 33.233 89.2713 33.233C89.5412 33.233 89.7898 33.196 90.017 33.1222C90.2443 33.0455 90.4474 32.9318 90.6264 32.7812C90.8054 32.6278 90.956 32.4375 91.0781 32.2102L91.9986 32.483C91.8423 32.8125 91.6222 33.1023 91.3381 33.3523C91.0568 33.5994 90.7273 33.7926 90.3494 33.9318C89.9744 34.0682 89.5639 34.1364 89.1179 34.1364ZM100.711 27.4545L100.575 28.3068H97.1825L97.3189 27.4545H100.711ZM98.5632 25.8864H99.5689L98.5291 32.125C98.4837 32.4091 98.4908 32.6222 98.5504 32.7642C98.6129 32.9034 98.7067 32.9972 98.8317 33.0455C98.9595 33.0909 99.0973 33.1136 99.245 33.1136C99.3558 33.1136 99.4467 33.108 99.5178 33.0966C99.5888 33.0824 99.6456 33.071 99.6882 33.0625L99.7564 33.9659C99.6797 33.9915 99.576 34.017 99.4453 34.0426C99.3175 34.071 99.1598 34.0852 98.9723 34.0852C98.6882 34.0852 98.4212 34.0241 98.1712 33.902C97.9212 33.7798 97.7294 33.5938 97.5959 33.3438C97.4624 33.0938 97.4268 32.7784 97.4893 32.3977L98.5632 25.8864ZM101.133 34L102.224 27.4545H103.195L103.025 28.4432H103.093C103.263 28.1193 103.523 27.8565 103.873 27.6548C104.222 27.4531 104.593 27.3523 104.985 27.3523C105.062 27.3523 105.154 27.3537 105.262 27.3565C105.37 27.3565 105.454 27.3608 105.513 27.3693L105.343 28.392C105.309 28.3835 105.232 28.3707 105.113 28.3537C104.994 28.3338 104.866 28.3239 104.729 28.3239C104.411 28.3239 104.117 28.3906 103.847 28.5241C103.577 28.6548 103.352 28.8366 103.17 29.0696C102.988 29.2997 102.871 29.5625 102.82 29.858L102.138 34H101.133ZM107.53 34.1534C107.115 34.1534 106.752 34.0753 106.439 33.919C106.127 33.7599 105.895 33.5312 105.745 33.233C105.594 32.9318 105.553 32.5682 105.621 32.142C105.686 31.767 105.813 31.4631 106 31.2301C106.188 30.9943 106.415 30.8097 106.682 30.6761C106.952 30.5398 107.242 30.4389 107.551 30.3736C107.864 30.3054 108.175 30.2528 108.485 30.2159C108.888 30.1648 109.216 30.125 109.469 30.0966C109.722 30.0682 109.912 30.0213 110.04 29.956C110.168 29.8906 110.246 29.7784 110.275 29.6193V29.5852C110.343 29.1676 110.287 28.8423 110.108 28.6094C109.929 28.3736 109.61 28.2557 109.15 28.2557C108.672 28.2557 108.273 28.3608 107.952 28.571C107.631 28.7812 107.394 29.0057 107.24 29.2443L106.354 28.9034C106.587 28.5057 106.865 28.196 107.189 27.9744C107.513 27.75 107.853 27.5937 108.208 27.5057C108.563 27.4148 108.905 27.3693 109.235 27.3693C109.445 27.3693 109.682 27.3949 109.946 27.446C110.211 27.4943 110.458 27.5952 110.688 27.7486C110.921 27.902 111.096 28.1335 111.212 28.4432C111.331 28.7528 111.348 29.1676 111.263 29.6875L110.547 34H109.542L109.695 33.1136H109.644C109.553 33.2557 109.414 33.4077 109.226 33.5696C109.042 33.7315 108.807 33.8693 108.523 33.983C108.242 34.0966 107.911 34.1534 107.53 34.1534ZM107.82 33.25C108.218 33.25 108.566 33.1719 108.864 33.0156C109.165 32.8594 109.407 32.6577 109.588 32.4105C109.773 32.1634 109.888 31.9034 109.934 31.6307L110.087 30.7102C110.036 30.7614 109.935 30.8082 109.784 30.8509C109.634 30.8906 109.463 30.9261 109.273 30.9574C109.086 30.9858 108.902 31.0114 108.723 31.0341C108.547 31.054 108.405 31.071 108.297 31.0852C108.03 31.1193 107.776 31.1747 107.534 31.2514C107.296 31.3253 107.094 31.4375 106.929 31.5881C106.767 31.7358 106.667 31.9375 106.627 32.1932C106.567 32.5426 106.651 32.8068 106.878 32.9858C107.105 33.1619 107.419 33.25 107.82 33.25ZM112.383 34L113.474 27.4545H114.479L113.388 34H112.383ZM114.283 26.3466C114.087 26.3466 113.918 26.2798 113.776 26.1463C113.637 26.0128 113.567 25.8523 113.567 25.6648C113.567 25.4773 113.637 25.3168 113.776 25.1832C113.918 25.0497 114.087 24.983 114.283 24.983C114.479 24.983 114.647 25.0497 114.786 25.1832C114.928 25.3168 114.999 25.4773 114.999 25.6648C114.999 25.8523 114.928 26.0128 114.786 26.1463C114.647 26.2798 114.479 26.3466 114.283 26.3466ZM119.168 27.4545L119.032 28.3068H115.64L115.776 27.4545H119.168ZM117.02 25.8864H118.026L116.986 32.125C116.941 32.4091 116.948 32.6222 117.007 32.7642C117.07 32.9034 117.164 32.9972 117.289 33.0455C117.417 33.0909 117.554 33.1136 117.702 33.1136C117.813 33.1136 117.904 33.108 117.975 33.0966C118.046 33.0824 118.103 33.071 118.145 33.0625L118.213 33.9659C118.137 33.9915 118.033 34.017 117.902 34.0426C117.775 34.071 117.617 34.0852 117.429 34.0852C117.145 34.0852 116.878 34.0241 116.628 33.902C116.378 33.7798 116.186 33.5938 116.053 33.3438C115.919 33.0938 115.884 32.7784 115.946 32.3977L117.02 25.8864ZM124.961 28.9205L124.007 29.1761C123.973 29.0227 123.913 28.875 123.828 28.733C123.745 28.5881 123.618 28.4702 123.444 28.3793C123.274 28.2855 123.041 28.2386 122.745 28.2386C122.345 28.2386 121.997 28.331 121.701 28.5156C121.406 28.6974 121.237 28.929 121.194 29.2102C121.152 29.4574 121.208 29.6548 121.365 29.8026C121.521 29.9503 121.782 30.071 122.149 30.1648L123.086 30.4034C123.649 30.5483 124.049 30.7656 124.288 31.0554C124.529 31.3423 124.612 31.7159 124.535 32.1761C124.473 32.5511 124.309 32.8864 124.045 33.1818C123.781 33.4773 123.443 33.7102 123.031 33.8807C122.619 34.0511 122.16 34.1364 121.654 34.1364C120.981 34.1364 120.45 33.9915 120.061 33.7017C119.672 33.4091 119.464 32.9858 119.439 32.4318L120.444 32.1932C120.47 32.5426 120.595 32.8068 120.819 32.9858C121.047 33.1619 121.365 33.25 121.774 33.25C122.243 33.25 122.633 33.1506 122.946 32.9517C123.258 32.75 123.436 32.5085 123.478 32.2273C123.521 31.9972 123.475 31.8054 123.342 31.652C123.211 31.4986 122.984 31.3835 122.66 31.3068L121.62 31.0511C121.041 30.9062 120.635 30.6847 120.402 30.3864C120.172 30.0881 120.095 29.7131 120.172 29.2614C120.234 28.892 120.393 28.5653 120.649 28.2812C120.907 27.9972 121.231 27.7741 121.62 27.6122C122.012 27.4503 122.439 27.3693 122.899 27.3693C123.547 27.3693 124.031 27.5114 124.352 27.7955C124.673 28.0767 124.876 28.4517 124.961 28.9205ZM131.026 34.1534C130.612 34.1534 130.248 34.0753 129.935 33.919C129.623 33.7599 129.391 33.5312 129.241 33.233C129.09 32.9318 129.049 32.5682 129.117 32.142C129.183 31.767 129.309 31.4631 129.496 31.2301C129.684 30.9943 129.911 30.8097 130.178 30.6761C130.448 30.5398 130.738 30.4389 131.048 30.3736C131.36 30.3054 131.671 30.2528 131.981 30.2159C132.384 30.1648 132.712 30.125 132.965 30.0966C133.218 30.0682 133.408 30.0213 133.536 29.956C133.664 29.8906 133.742 29.7784 133.771 29.6193V29.5852C133.839 29.1676 133.783 28.8423 133.604 28.6094C133.425 28.3736 133.106 28.2557 132.646 28.2557C132.168 28.2557 131.769 28.3608 131.448 28.571C131.127 28.7812 130.89 29.0057 130.737 29.2443L129.85 28.9034C130.083 28.5057 130.362 28.196 130.685 27.9744C131.009 27.75 131.349 27.5937 131.704 27.5057C132.059 27.4148 132.401 27.3693 132.731 27.3693C132.941 27.3693 133.178 27.3949 133.442 27.446C133.707 27.4943 133.954 27.5952 134.184 27.7486C134.417 27.902 134.592 28.1335 134.708 28.4432C134.827 28.7528 134.844 29.1676 134.759 29.6875L134.043 34H133.038L133.191 33.1136H133.14C133.049 33.2557 132.91 33.4077 132.722 33.5696C132.538 33.7315 132.303 33.8693 132.019 33.983C131.738 34.0966 131.407 34.1534 131.026 34.1534ZM131.316 33.25C131.714 33.25 132.062 33.1719 132.36 33.0156C132.661 32.8594 132.903 32.6577 133.085 32.4105C133.269 32.1634 133.384 31.9034 133.43 31.6307L133.583 30.7102C133.532 30.7614 133.431 30.8082 133.281 30.8509C133.13 30.8906 132.96 30.9261 132.769 30.9574C132.582 30.9858 132.398 31.0114 132.219 31.0341C132.043 31.054 131.901 31.071 131.793 31.0852C131.526 31.1193 131.272 31.1747 131.031 31.2514C130.792 31.3253 130.59 31.4375 130.425 31.5881C130.263 31.7358 130.163 31.9375 130.123 32.1932C130.063 32.5426 130.147 32.8068 130.374 32.9858C130.602 33.1619 130.915 33.25 131.316 33.25ZM138.521 34.1364C137.904 34.1364 137.399 33.9915 137.004 33.7017C136.612 33.4119 136.339 33.0128 136.186 32.5043C136.032 31.9957 136.01 31.4148 136.118 30.7614C136.225 30.0966 136.444 29.5099 136.774 29.0014C137.103 28.4901 137.514 28.0909 138.005 27.804C138.497 27.5142 139.038 27.3693 139.629 27.3693C140.089 27.3693 140.49 27.4545 140.831 27.625C141.172 27.7955 141.434 28.0341 141.619 28.3409C141.804 28.6477 141.89 29.0057 141.879 29.4148H140.873C140.845 29.1165 140.717 28.8523 140.49 28.6222C140.265 28.3892 139.933 28.2727 139.493 28.2727C139.1 28.2727 138.74 28.375 138.41 28.5795C138.081 28.7812 137.804 29.0668 137.579 29.4361C137.355 29.8026 137.203 30.233 137.123 30.7273C137.038 31.233 137.045 31.6733 137.145 32.0483C137.244 32.4233 137.424 32.7145 137.686 32.9219C137.947 33.1293 138.277 33.233 138.674 33.233C138.936 33.233 139.18 33.1875 139.407 33.0966C139.635 33.0057 139.836 32.875 140.012 32.7045C140.189 32.5341 140.328 32.3295 140.43 32.0909H141.436C141.311 32.4773 141.11 32.8253 140.835 33.1349C140.559 33.4418 140.225 33.6861 139.833 33.8679C139.441 34.0469 139.004 34.1364 138.521 34.1364ZM142.582 34L143.673 27.4545H144.645L144.474 28.4432H144.542C144.713 28.1193 144.973 27.8565 145.322 27.6548C145.672 27.4531 146.042 27.3523 146.434 27.3523C146.511 27.3523 146.603 27.3537 146.711 27.3565C146.819 27.3565 146.903 27.3608 146.963 27.3693L146.792 28.392C146.758 28.3835 146.681 28.3707 146.562 28.3537C146.443 28.3338 146.315 28.3239 146.179 28.3239C145.86 28.3239 145.566 28.3906 145.297 28.5241C145.027 28.6548 144.801 28.8366 144.619 29.0696C144.437 29.2997 144.321 29.5625 144.27 29.858L143.588 34H142.582ZM149.573 34.1364C148.971 34.1364 148.466 33.9929 148.06 33.706C147.654 33.419 147.367 33.017 147.199 32.5C147.034 31.983 147.007 31.3807 147.118 30.6932C147.226 30.0227 147.441 29.4389 147.762 28.9418C148.086 28.4418 148.488 28.0554 148.968 27.7827C149.451 27.5071 149.982 27.3693 150.561 27.3693C151.164 27.3693 151.667 27.5142 152.07 27.804C152.476 28.0909 152.763 28.4943 152.931 29.0142C153.098 29.5312 153.127 30.1364 153.016 30.8295C152.908 31.4943 152.691 32.0753 152.364 32.5724C152.04 33.0668 151.638 33.4517 151.158 33.7273C150.681 34 150.152 34.1364 149.573 34.1364ZM149.59 33.233C150.05 33.233 150.449 33.1151 150.787 32.8793C151.128 32.6435 151.404 32.3324 151.614 31.946C151.827 31.5597 151.971 31.142 152.044 30.6932C152.113 30.267 152.11 29.8707 152.036 29.5043C151.962 29.1349 151.804 28.8381 151.563 28.6136C151.321 28.3864 150.982 28.2727 150.544 28.2727C150.084 28.2727 149.682 28.392 149.338 28.6307C148.998 28.8693 148.722 29.1832 148.512 29.5724C148.301 29.9616 148.161 30.3807 148.09 30.8295C148.022 31.2557 148.023 31.652 148.094 32.0185C148.168 32.3821 148.326 32.6761 148.567 32.9006C148.811 33.1222 149.152 33.233 149.59 33.233ZM159.52 28.9205L158.565 29.1761C158.531 29.0227 158.472 28.875 158.386 28.733C158.304 28.5881 158.176 28.4702 158.003 28.3793C157.832 28.2855 157.599 28.2386 157.304 28.2386C156.903 28.2386 156.555 28.331 156.26 28.5156C155.964 28.6974 155.795 28.929 155.753 29.2102C155.71 29.4574 155.767 29.6548 155.923 29.8026C156.08 29.9503 156.341 30.071 156.707 30.1648L157.645 30.4034C158.207 30.5483 158.608 30.7656 158.847 31.0554C159.088 31.3423 159.17 31.7159 159.094 32.1761C159.031 32.5511 158.868 32.8864 158.604 33.1818C158.339 33.4773 158.001 33.7102 157.589 33.8807C157.178 34.0511 156.719 34.1364 156.213 34.1364C155.54 34.1364 155.009 33.9915 154.619 33.7017C154.23 33.4091 154.023 32.9858 153.997 32.4318L155.003 32.1932C155.028 32.5426 155.153 32.8068 155.378 32.9858C155.605 33.1619 155.923 33.25 156.332 33.25C156.801 33.25 157.192 33.1506 157.504 32.9517C157.817 32.75 157.994 32.5085 158.037 32.2273C158.08 31.9972 158.034 31.8054 157.901 31.652C157.77 31.4986 157.543 31.3835 157.219 31.3068L156.179 31.0511C155.599 30.9062 155.193 30.6847 154.96 30.3864C154.73 30.0881 154.653 29.7131 154.73 29.2614C154.793 28.892 154.952 28.5653 155.207 28.2812C155.466 27.9972 155.79 27.7741 156.179 27.6122C156.571 27.4503 156.997 27.3693 157.457 27.3693C158.105 27.3693 158.589 27.5114 158.911 27.7955C159.232 28.0767 159.435 28.4517 159.52 28.9205ZM165.789 28.9205L164.835 29.1761C164.801 29.0227 164.741 28.875 164.656 28.733C164.574 28.5881 164.446 28.4702 164.272 28.3793C164.102 28.2855 163.869 28.2386 163.574 28.2386C163.173 28.2386 162.825 28.331 162.529 28.5156C162.234 28.6974 162.065 28.929 162.022 29.2102C161.98 29.4574 162.037 29.6548 162.193 29.8026C162.349 29.9503 162.61 30.071 162.977 30.1648L163.914 30.4034C164.477 30.5483 164.877 30.7656 165.116 31.0554C165.358 31.3423 165.44 31.7159 165.363 32.1761C165.301 32.5511 165.137 32.8864 164.873 33.1818C164.609 33.4773 164.271 33.7102 163.859 33.8807C163.447 34.0511 162.988 34.1364 162.483 34.1364C161.809 34.1364 161.278 33.9915 160.889 33.7017C160.5 33.4091 160.292 32.9858 160.267 32.4318L161.272 32.1932C161.298 32.5426 161.423 32.8068 161.647 32.9858C161.875 33.1619 162.193 33.25 162.602 33.25C163.071 33.25 163.461 33.1506 163.774 32.9517C164.086 32.75 164.264 32.5085 164.306 32.2273C164.349 31.9972 164.304 31.8054 164.17 31.652C164.039 31.4986 163.812 31.3835 163.488 31.3068L162.449 31.0511C161.869 30.9062 161.463 30.6847 161.23 30.3864C161 30.0881 160.923 29.7131 161 29.2614C161.062 28.892 161.221 28.5653 161.477 28.2812C161.735 27.9972 162.059 27.7741 162.449 27.6122C162.841 27.4503 163.267 27.3693 163.727 27.3693C164.375 27.3693 164.859 27.5114 165.18 27.7955C165.501 28.0767 165.704 28.4517 165.789 28.9205ZM171.428 34L170.525 27.4545H171.582L172.161 32.4659H172.229L174.462 27.4545H175.536L176.082 32.4489H176.15L178.4 27.4545H179.457L176.371 34H175.383L174.786 28.9716H174.684L172.417 34H171.428ZM182.2 34.1364C181.572 34.1364 181.054 33.9972 180.645 33.7188C180.235 33.4375 179.95 33.0455 179.788 32.5426C179.626 32.0369 179.6 31.4489 179.711 30.7784C179.822 30.108 180.042 29.517 180.372 29.0057C180.701 28.4915 181.112 28.0909 181.603 27.804C182.095 27.5142 182.635 27.3693 183.223 27.3693C183.564 27.3693 183.892 27.4261 184.207 27.5398C184.522 27.6534 184.795 27.8381 185.025 28.0938C185.255 28.3466 185.416 28.6818 185.507 29.0994C185.598 29.517 185.592 30.0312 185.49 30.642L185.422 31.0682H180.376L180.512 30.1989H184.535C184.6 29.8295 184.583 29.5 184.484 29.2102C184.387 28.9205 184.218 28.6918 183.977 28.5241C183.738 28.3565 183.436 28.2727 183.069 28.2727C182.691 28.2727 182.339 28.375 182.012 28.5795C181.686 28.7812 181.413 29.0369 181.194 29.3466C180.975 29.6534 180.839 29.9659 180.785 30.2841L180.666 31.0341C180.581 31.5767 180.593 32.0085 180.704 32.3295C180.818 32.6506 181.015 32.8821 181.297 33.0241C181.578 33.1634 181.93 33.233 182.353 33.233C182.623 33.233 182.872 33.196 183.099 33.1222C183.326 33.0455 183.529 32.9318 183.708 32.7812C183.887 32.6278 184.038 32.4375 184.16 32.2102L185.081 32.483C184.924 32.8125 184.704 33.1023 184.42 33.3523C184.139 33.5994 183.809 33.7926 183.431 33.9318C183.056 34.0682 182.646 34.1364 182.2 34.1364ZM186.617 34L188.066 25.2727H189.071L188.543 28.4943H188.628C188.719 28.3807 188.846 28.2358 189.007 28.0597C189.169 27.8807 189.387 27.7216 189.659 27.5824C189.932 27.4403 190.282 27.3693 190.708 27.3693C191.259 27.3693 191.721 27.5071 192.093 27.7827C192.468 28.0582 192.73 28.4489 192.881 28.9545C193.034 29.4602 193.054 30.0568 192.941 30.7443C192.827 31.4375 192.61 32.0384 192.289 32.5469C191.971 33.0526 191.578 33.4446 191.113 33.723C190.65 33.9986 190.145 34.1364 189.6 34.1364C189.179 34.1364 188.854 34.0668 188.624 33.9276C188.397 33.7855 188.229 33.625 188.121 33.446C188.016 33.2642 187.935 33.1136 187.878 32.9943H187.759L187.588 34H186.617ZM188.151 30.7273C188.071 31.2216 188.073 31.6577 188.155 32.0355C188.238 32.4105 188.401 32.7045 188.645 32.9176C188.89 33.1278 189.213 33.233 189.617 33.233C190.037 33.233 190.407 33.1222 190.725 32.9006C191.043 32.6761 191.304 32.375 191.509 31.9972C191.713 31.6165 191.855 31.1932 191.935 30.7273C192.009 30.267 192.006 29.8523 191.926 29.483C191.85 29.1108 191.688 28.8168 191.441 28.6009C191.196 28.3821 190.861 28.2727 190.435 28.2727C190.026 28.2727 189.664 28.3764 189.348 28.5838C189.036 28.7884 188.777 29.0753 188.573 29.4446C188.371 29.8111 188.23 30.2386 188.151 30.7273ZM196.9 34.1193C196.331 34.1193 195.838 34.0241 195.421 33.8338C195.006 33.6406 194.696 33.3722 194.492 33.0284C194.287 32.6818 194.215 32.2784 194.275 31.8182H195.331C195.306 32.0966 195.354 32.3381 195.476 32.5426C195.601 32.7472 195.786 32.9048 196.03 33.0156C196.277 33.1264 196.573 33.1818 196.917 33.1818C197.283 33.1818 197.627 33.1179 197.948 32.9901C198.272 32.8622 198.543 32.6776 198.762 32.4361C198.98 32.1918 199.115 31.9006 199.167 31.5625C199.212 31.2585 199.178 30.9886 199.064 30.7528C198.951 30.517 198.755 30.3324 198.476 30.1989C198.201 30.0625 197.84 29.9943 197.394 29.9943H196.678L196.831 29.0568H197.496C197.843 29.0568 198.161 28.9915 198.451 28.8608C198.74 28.7301 198.982 28.5469 199.175 28.3111C199.368 28.0724 199.49 27.7926 199.542 27.4716C199.59 27.1903 199.57 26.946 199.482 26.7386C199.397 26.5284 199.249 26.3651 199.039 26.2486C198.831 26.1321 198.567 26.0739 198.246 26.0739C197.939 26.0739 197.638 26.1293 197.343 26.2401C197.05 26.348 196.8 26.5057 196.593 26.7131C196.385 26.9176 196.255 27.1648 196.201 27.4545H195.178C195.266 27 195.463 26.6009 195.77 26.2571C196.077 25.9105 196.451 25.6406 196.891 25.4474C197.334 25.2514 197.803 25.1534 198.297 25.1534C198.846 25.1534 199.297 25.267 199.652 25.4943C200.01 25.7187 200.266 26.0142 200.419 26.3807C200.573 26.7443 200.615 27.1364 200.547 27.5568C200.471 28.0369 200.273 28.4432 199.955 28.7756C199.637 29.108 199.249 29.3437 198.792 29.483V29.5341C199.328 29.6278 199.718 29.875 199.959 30.2756C200.203 30.6733 200.28 31.1477 200.189 31.6989C200.11 32.1932 199.918 32.6222 199.614 32.9858C199.31 33.3466 198.925 33.6264 198.459 33.8253C197.993 34.0213 197.473 34.1193 196.9 34.1193Z" fill="#999999"/>
</svg>
